<svg width="136" height="123" viewBox="0 0 136 123" fill="none" xmlns="http://www.w3.org/2000/svg">
<circle cx="59" cy="59" r="59" fill="#A44B4C"/>
<path d="M117.037 107.806C120.411 110.859 120.411 115.806 117.037 118.855C113.664 121.908 108.197 121.908 104.829 118.855C101.456 115.801 101.456 110.854 104.829 107.806C108.203 104.753 113.669 104.753 117.037 107.806" stroke="#E9D3B0" stroke-width="2" stroke-linecap="round" stroke-linejoin="round"/>
<path d="M57.0877 107.805C60.4613 110.858 60.4613 115.804 57.0877 118.853C53.7142 121.906 48.2478 121.906 44.8797 118.853C41.5115 115.8 41.5061 110.853 44.8797 107.805C48.2532 104.756 53.7142 104.751 57.0877 107.805" stroke="#E9D3B0" stroke-width="2" stroke-linecap="round" stroke-linejoin="round"/>
<path d="M69.6001 37.2954H91.4001C94.4086 37.2954 96.8502 39.505 96.8502 42.2276V91.5491H26" stroke="#E9D3B0" stroke-width="2" stroke-linecap="round" stroke-linejoin="round"/>
<path d="M42.35 113.331H31.45C28.4416 113.331 26 111.122 26 108.399V81.6868" stroke="#E9D3B0" stroke-width="2" stroke-linecap="round" stroke-linejoin="round"/>
<path d="M96.85 52.0911H120.41C122.639 52.0911 124.645 53.3192 125.468 55.1934L134.221 74.9911C134.733 76.1551 135 77.398 135 78.6508V107.987C135 110.71 132.559 112.92 129.55 112.92H119.571" stroke="#E9D3B0" stroke-width="2" stroke-linecap="round" stroke-linejoin="round"/>
<path d="M102.3 113.346H59.6266" stroke="#E9D3B0" stroke-width="2" stroke-linecap="round" stroke-linejoin="round"/>
<path d="M135 86.6155H113.2V66.8867H130.64" stroke="#E9D3B0" stroke-width="2" stroke-linecap="round" stroke-linejoin="round"/>
<path d="M26 37.2942H53.2501" stroke="#E9D3B0" stroke-width="2" stroke-linecap="round" stroke-linejoin="round"/>
<path d="M26 52.0899H42.35" stroke="#E9D3B0" stroke-width="2" stroke-linecap="round" stroke-linejoin="round"/>
<path d="M31.4501 66.8859H26" stroke="#E9D3B0" stroke-width="2" stroke-linecap="round" stroke-linejoin="round"/>
<path d="M127.385 72.2275H118.569" stroke="#E9D3B0" stroke-width="2" stroke-linecap="round" stroke-linejoin="round"/>
</svg>
