<svg width="127" height="125" viewBox="0 0 127 125" fill="none" xmlns="http://www.w3.org/2000/svg">
<circle cx="59" cy="59" r="59" fill="#A44B4C"/>
<path fill-rule="evenodd" clip-rule="evenodd" d="M72.75 102.148V102.148C64.0507 102.148 57 95.1161 57 86.4405V84.2362C57 81.3461 59.352 79.0005 62.25 79.0005H83.25C86.148 79.0005 88.5 81.3461 88.5 84.2362V86.4405C88.5 95.1161 81.4493 102.148 72.75 102.148Z" stroke="#E9D3B0" stroke-width="2" stroke-linecap="round" stroke-linejoin="round"/>
<path d="M85.9889 44.5532V31.4637C85.9889 24.2331 80.1141 18.3743 72.8639 18.3743V18.3743C65.6136 18.3743 59.7389 24.2331 59.7389 31.4637V44.5532" stroke="#E9D3B0" stroke-width="2" stroke-linecap="round" stroke-linejoin="round"/>
<path d="M109.75 70.7324V112.619C109.75 118.404 105.051 123.09 99.2495 123.09H46.7495C40.9483 123.09 36.2495 118.404 36.2495 112.619V70.7324" stroke="#E9D3B0" stroke-width="2" stroke-linecap="round" stroke-linejoin="round"/>
<path d="M125.5 70.7323H112.159C104.652 70.7323 98.189 65.4494 96.7138 58.1035L94.8395 48.7628C94.3513 46.3125 92.1988 44.5532 89.6945 44.5532H72.9995H56.3045C53.8003 44.5532 51.6478 46.3125 51.1543 48.7628L49.28 58.1035C47.81 65.4494 41.3473 70.7323 33.8398 70.7323H20.4995" stroke="#E9D3B0" stroke-width="2" stroke-linecap="round" stroke-linejoin="round"/>
<path d="M66 89.1536H80.8365" stroke="#E9D3B0" stroke-width="2" stroke-linecap="round" stroke-linejoin="round"/>
<path d="M69 95.1655H76" stroke="#E9D3B0" stroke-width="2" stroke-linecap="round" stroke-linejoin="round"/>
</svg>
