<svg width="130" height="156" viewBox="0 0 130 156" fill="none" xmlns="http://www.w3.org/2000/svg">
<circle cx="59" cy="59" r="59" fill="#A44B4C"/>
<path d="M73.0056 74.5022C103.397 74.5022 128.034 66.6617 128.034 56.9899C128.034 47.3181 103.397 39.4775 73.0056 39.4775C42.614 39.4775 17.9768 47.3181 17.9768 56.9899C17.9768 66.6617 42.614 74.5022 73.0056 74.5022Z" stroke="#E9D3B0" stroke-width="2" stroke-linecap="round" stroke-linejoin="round"/>
<path d="M69.0689 100.692C15.882 98.7378 17.9851 56.9854 17.9851 56.9854" stroke="#E9D3B0" stroke-width="2" stroke-linecap="round" stroke-linejoin="round"/>
<path d="M76.9311 100.692C84.9796 100.54 92.9455 99.0466 100.498 96.2748C102.946 95.3509 105.313 94.2264 107.574 92.9127V92.8932C129.194 80.3049 128.015 56.9854 128.015 56.9854" stroke="#E9D3B0" stroke-width="2" stroke-linecap="round" stroke-linejoin="round"/>
<path d="M76.9311 94.9065C76.9311 92.7474 75.1711 90.9971 73.0001 90.9971C70.829 90.9971 69.069 92.7474 69.069 94.9065V120.318C69.069 122.477 70.829 124.227 73.0001 124.227C75.1711 124.227 76.9311 122.477 76.9311 120.318V94.9065Z" stroke="#E9D3B0" stroke-width="2" stroke-linecap="round" stroke-linejoin="round"/>
<path d="M36.0876 91.4468L25.69 111.267C25.4003 111.824 25.2454 112.439 25.2379 113.066C25.2458 114.526 26.0618 115.864 27.3607 116.545C28.283 117.024 29.3591 117.118 30.3513 116.806C31.3434 116.495 32.1699 115.803 32.6479 114.884L42.9669 95.2389" stroke="#E9D3B0" stroke-width="2" stroke-linecap="round" stroke-linejoin="round"/>
<path d="M109.854 91.4468L120.31 111.346C121.31 113.262 120.563 115.622 118.639 116.623C118.08 116.911 117.461 117.065 116.831 117.073C115.368 117.064 114.029 116.252 113.352 114.962L102.994 95.2389" stroke="#E9D3B0" stroke-width="2" stroke-linecap="round" stroke-linejoin="round"/>
<path d="M29.7587 59.721L39.5863 49.9485" stroke="#E9D3B0" stroke-width="2" stroke-linecap="round" stroke-linejoin="round"/>
<path d="M37.6207 63.6313L53.3449 47.9937" stroke="#E9D3B0" stroke-width="2" stroke-linecap="round" stroke-linejoin="round"/>
<path d="M47.4483 65.5858L67.1034 46.0388" stroke="#E9D3B0" stroke-width="2" stroke-linecap="round" stroke-linejoin="round"/>
<path d="M57.2759 67.5405L78.8966 46.0388" stroke="#E9D3B0" stroke-width="2" stroke-linecap="round" stroke-linejoin="round"/>
<path d="M69.069 67.5407L88.7242 47.9937" stroke="#E9D3B0" stroke-width="2" stroke-linecap="round" stroke-linejoin="round"/>
<path d="M80.8621 67.5408L98.5518 49.9485" stroke="#E9D3B0" stroke-width="2" stroke-linecap="round" stroke-linejoin="round"/>
<path d="M94.6207 65.5861L110.345 49.9485" stroke="#E9D3B0" stroke-width="2" stroke-linecap="round" stroke-linejoin="round"/>
<path d="M108.379 63.6305L116.241 55.8125" stroke="#E9D3B0" stroke-width="2" stroke-linecap="round" stroke-linejoin="round"/>
<path d="M65.3249 10.8528L60.6057 16.4643C58.7866 18.6273 58.7866 21.7754 60.6057 23.9384L60.6096 23.9431C62.4287 26.1061 62.4287 29.2543 60.6096 31.4173L59.8214 32.3545" stroke="#E9D3B0" stroke-width="2" stroke-linecap="round" stroke-linejoin="round"/>
<path d="M77.118 10.8528L72.3988 16.4643C70.5798 18.6273 70.5798 21.7754 72.3988 23.9384L72.4027 23.9431C74.2218 26.1061 74.2218 29.2543 72.4027 31.4173L71.6146 32.3545" stroke="#E9D3B0" stroke-width="2" stroke-linecap="round" stroke-linejoin="round"/>
<path d="M88.9111 10.8528L84.1919 16.4643C82.3728 18.6273 82.3728 21.7754 84.1919 23.9384L84.1958 23.9431C86.0149 26.1061 86.0149 29.2543 84.1958 31.4173L83.4077 32.3545" stroke="#E9D3B0" stroke-width="2" stroke-linecap="round" stroke-linejoin="round"/>
</svg>
