<svg width="160" height="129" viewBox="0 0 160 129" fill="none" xmlns="http://www.w3.org/2000/svg">
<circle cx="67.0046" cy="59" r="59" fill="#A44B4C"/>
<path fill-rule="evenodd" clip-rule="evenodd" d="M27.4314 107.904C23.2083 106.907 18.2792 105.294 14.7168 100.361C11.1544 95.4282 8.96535 87.1779 11.016 78.0606C13.0689 68.9394 19.3661 58.9569 28.6783 50.4661C37.9905 41.9754 50.3193 34.9828 66.6441 30.5879C82.9696 26.1961 103.289 24.4059 116.48 24.4843C129.671 24.5627 135.738 26.5121 139.762 30.605C143.787 34.6978 145.774 40.9326 144.043 46.1003C142.313 51.2681 136.861 55.3695 128.833 57.9348C120.803 60.504 110.194 61.5378 102.188 64.694C94.1814 67.8502 88.7796 73.1247 84.9934 78.8757C81.2043 84.6273 79.0271 90.8527 74.7316 95.4831C70.4339 100.117 64.0157 103.16 57.6561 105.26C51.2935 107.359 44.9887 108.512 40.0765 108.901C35.1666 109.285 31.6516 108.901 27.4314 107.904Z" stroke="#E9D3B0" stroke-width="2" stroke-linecap="round" stroke-linejoin="round"/>
<path d="M148.985 50.0189C149.812 52.7837 149.897 55.6966 149.014 58.3313C147.283 63.5002 141.831 67.6026 133.802 70.1685C125.771 72.7384 115.162 73.7725 107.155 76.9294C99.1507 80.0856 93.7485 85.3614 89.9591 91.1144C86.1696 96.8674 83.9922 103.094 79.6963 107.726C75.3983 112.361 68.9796 115.405 62.6194 117.505C56.2563 119.605 49.951 120.758 45.0384 121.147C40.1281 121.531 36.6157 121.147 32.3923 120.15C28.6225 119.258 24.2906 117.879 20.8703 114.086" stroke="#E9D3B0" stroke-width="2" stroke-linecap="round" stroke-linejoin="round"/>
<path d="M11.1867 92.7527C11.9514 95.7646 12.7199 98.7789 13.618 101.633C14.5161 104.487 15.5497 107.178 16.778 109.231C18.0055 111.281 19.4306 112.691 20.8528 114.101" stroke="#E9D3B0" stroke-width="2" stroke-linecap="round" stroke-linejoin="round"/>
<path d="M142.25 33.7583C143.747 36.1344 145.247 38.5097 146.372 41.2203C147.501 43.9301 148.255 46.9752 149.009 50.0202" stroke="#E9D3B0" stroke-width="2" stroke-linecap="round" stroke-linejoin="round"/>
<path fill-rule="evenodd" clip-rule="evenodd" d="M39.3671 67.3682C36.5552 69.3661 34.0431 71.5949 32.4304 73.8218C30.8191 76.0415 30.1087 78.2522 30.2424 80.5289C30.3782 82.8016 31.3603 85.1363 33.2563 86.7948C35.1509 88.4604 37.9587 89.4466 41.5185 88.8182C45.0774 88.1866 49.3905 85.9365 52.7559 83.0904C56.1226 80.2371 58.5461 76.7799 59.8326 73.6337C61.1169 70.4915 61.2606 67.6577 60.4741 65.6914C59.6818 63.7265 57.9557 62.6265 55.7914 62.1291C53.6241 61.6323 51.0106 61.73 48.1498 62.6635C45.2861 63.5978 42.1782 65.3672 39.3671 67.3682Z" stroke="#E9D3B0" stroke-width="2" stroke-linecap="round" stroke-linejoin="round"/>
<path fill-rule="evenodd" clip-rule="evenodd" d="M38.3338 72.8446C36.7085 74.0018 35.2559 75.2911 34.3237 76.5744C33.3943 77.857 32.9824 79.1343 33.0611 80.4501C33.139 81.7627 33.7074 83.114 34.8025 84.0729C35.8946 85.0325 37.5179 85.6056 39.5758 85.2398C41.6315 84.878 44.1249 83.5766 46.072 81.9299C48.0154 80.2807 49.4155 78.2856 50.1582 76.4657C50.9016 74.6489 50.9855 73.0114 50.5294 71.8783C50.0724 70.742 49.0777 70.1062 47.8237 69.8189C46.5697 69.5315 45.0617 69.5879 43.4087 70.1287C41.7549 70.6662 39.9562 71.6881 38.3338 72.8446Z" stroke="#E9D3B0" stroke-width="2" stroke-linecap="round" stroke-linejoin="round"/>
<path fill-rule="evenodd" clip-rule="evenodd" d="M34.1037 54.6697C30.9273 56.9288 27.291 60.2281 24.3921 64.0685C21.4902 67.9095 19.3265 72.2948 17.8979 76.2581C16.4692 80.2214 15.78 83.7684 16.8549 87.3098C17.9297 90.8512 20.7672 94.3941 25.199 96.331C29.6309 98.2678 35.6543 98.5993 41.4294 98.6161C47.2023 98.6367 52.7292 98.3386 57.5903 97.0736C62.4492 95.8126 66.6445 93.5807 68.9625 90.3466C71.2783 87.1165 71.7139 82.8848 71.2821 77.7313C70.8512 72.5811 69.5507 66.513 68.2697 61.9418C66.9888 57.3706 65.7236 54.2939 63.3826 52.0889C61.0387 49.8846 57.6122 48.5502 53.9904 48.3423C50.3656 48.1351 46.5396 49.0556 43.2684 50.1254C39.9972 51.1951 37.28 52.4107 34.1037 54.6697Z" stroke="#E9D3B0" stroke-width="2" stroke-linecap="round" stroke-linejoin="round"/>
<path fill-rule="evenodd" clip-rule="evenodd" d="M63.5952 37.5795C65.2019 36.3958 69.2708 35.4167 75.0837 34.3482C80.8958 33.2766 88.4541 32.1117 94.7425 31.5862C101.03 31.0575 106.053 31.1635 108.368 32.7183C110.682 34.273 110.29 37.2796 108.113 40.9031C105.934 44.5233 101.966 48.7618 97.0029 50.8485C92.0402 52.9351 86.0798 52.8674 80.3606 50.9602C74.6437 49.0491 69.1702 45.2946 66.0061 42.7249C62.8419 40.1552 61.9856 38.7638 63.5952 37.5795Z" stroke="#E9D3B0" stroke-width="2" stroke-linecap="round" stroke-linejoin="round"/>
<path fill-rule="evenodd" clip-rule="evenodd" d="M77.1439 57.7969C75.9623 58.786 75.1802 60.52 74.9609 62.9901C74.7417 65.4603 75.0867 68.6594 75.4711 71.57C75.8525 74.4812 76.2762 77.1031 77.4153 77.6257C78.5544 78.1484 80.4097 76.575 81.8506 74.8902C83.2943 73.2048 84.3245 71.4111 85.8964 69.9059C87.4683 68.4007 89.5835 67.1904 90.9158 65.7667C92.2511 64.3422 92.8043 62.7076 92.4765 61.3565C92.1479 60.0022 90.939 58.9345 88.9601 58.1441C86.9812 57.3536 84.2322 56.8404 82.0661 56.7079C79.9022 56.5714 78.3255 56.8078 77.1439 57.7969Z" stroke="#E9D3B0" stroke-width="2" stroke-linecap="round" stroke-linejoin="round"/>
<path fill-rule="evenodd" clip-rule="evenodd" d="M116.262 31.3515C117.764 30.6155 120.312 30.4688 123.378 30.8582C126.444 31.2475 130.026 32.1665 132.909 33.3968C135.791 34.627 137.971 36.1693 138.944 38.2337C139.92 40.2973 139.689 42.8863 137.399 45.8785C135.109 48.8675 130.768 52.2615 126.519 54.2714C122.269 56.2781 118.114 56.8998 115.783 56.5244C113.453 56.145 112.947 54.7653 112.877 52.5315C112.809 50.2937 113.177 47.2018 113.414 44.094C113.65 40.9862 113.752 37.8664 114.031 35.6406C114.309 33.4148 114.762 32.0869 116.262 31.3515Z" stroke="#E9D3B0" stroke-width="2" stroke-linecap="round" stroke-linejoin="round"/>
</svg>
